<svg width="161" height="155" viewBox="0 0 161 155" fill="none" xmlns="http://www.w3.org/2000/svg">
<path d="M58.1443 18.6345C53.1763 13.122 51.7853 9.35022 42.9423 3.06396C33.1058 3.06396 15.1218 20.4721 21.1827 29.7564C32.2116 42.0388 74.9359 43.296 80.5994 42.4256C81.2949 41.3618 61.6218 22.7931 58.1443 18.6345Z" fill="#FFCF48"/>
<path d="M53.077 16.7969C48.7052 11.4777 47.4135 7.89941 39.3654 2C30.5225 2 14.327 18.6344 19.7917 27.4352C29.7276 39.1373 68.1795 40.3945 73.2468 39.5241C73.9424 38.4603 56.1571 20.7621 53.077 16.7969Z" fill="#FFBC33"/>
<path d="M117.164 3.06396C108.321 9.25351 106.83 13.0253 101.962 18.6345C98.484 22.7931 78.7116 41.4585 79.6058 42.5223C85.1699 43.4894 127.994 42.1355 138.923 29.8531C144.885 20.4721 127 3.16068 117.164 3.06396Z" fill="#FFCF48"/>
<path d="M58.1443 18.6345C53.1763 13.122 51.7853 9.35022 42.9423 3.06396C33.1058 3.06396 15.1218 20.4721 21.1827 29.7564C32.2116 42.0388 74.9359 43.296 80.5994 42.4256C81.2949 41.3618 61.6218 22.7931 58.1443 18.6345Z" stroke="black" stroke-width="6" stroke-miterlimit="10"/>
<path d="M117.164 3.06396C108.321 9.25351 106.83 13.0253 101.962 18.6345C98.484 22.7931 78.7116 41.4585 79.6058 42.5223C85.1699 43.4894 127.994 42.1355 138.923 29.8531C144.885 20.4721 127 3.16068 117.164 3.06396Z" stroke="black" stroke-width="6" stroke-miterlimit="10"/>
<path d="M139.122 52.387H20.8846C14.3269 52.387 8.96155 57.6094 8.96155 63.9924V140.395C8.96155 146.778 14.3269 152 20.8846 152H139.122C145.68 152 151.045 146.778 151.045 140.395V63.9924C151.045 57.6094 145.68 52.387 139.122 52.387Z" fill="#FF563B"/>
<path d="M148.163 69.7952H22.9711C22.9711 70.0853 22.8718 70.2787 22.8718 70.5689V138.751C22.8718 144.457 27.5416 149.099 33.4038 149.099H137.731C147.17 149.776 148.263 145.327 148.263 138.751V70.5689C148.263 70.2787 148.163 70.0853 148.163 69.7952Z" fill="#FF6E50"/>
<path d="M139.122 52.387H20.8846C14.3269 52.387 8.96155 57.6094 8.96155 63.9924V140.395C8.96155 146.778 14.3269 152 20.8846 152H139.122C145.68 152 151.045 146.778 151.045 140.395V63.9924C151.045 57.6094 145.68 52.387 139.122 52.387Z" stroke="black" stroke-width="6" stroke-miterlimit="10"/>
<path d="M94.4103 63.0254H65.5962V152H94.4103V63.0254Z" fill="#FFCF48"/>
<path d="M89.4423 23.3735H70.5641C67.7821 23.3735 65.5962 25.5012 65.5962 28.2091V44.6501C65.5962 47.358 67.7821 49.4857 70.5641 49.4857H89.4423C92.2244 49.4857 94.4103 47.358 94.4103 44.6501V28.2091C94.4103 25.5012 92.2244 23.3735 89.4423 23.3735Z" fill="#FFCF48"/>
<path d="M94.4103 63.0254H65.5962V152H94.4103V63.0254Z" stroke="black" stroke-width="6" stroke-miterlimit="10"/>
<path d="M89.4423 23.3735H70.5641C67.7821 23.3735 65.5962 25.5012 65.5962 28.2091V44.6501C65.5962 47.358 67.7821 49.4857 70.5641 49.4857H89.4423C92.2244 49.4857 94.4103 47.358 94.4103 44.6501V28.2091C94.4103 25.5012 92.2244 23.3735 89.4423 23.3735Z" stroke="black" stroke-width="6" stroke-miterlimit="10"/>
<path fill-rule="evenodd" clip-rule="evenodd" d="M3 66.8936V53.354C3 46.3908 8.36538 40.7815 14.9231 40.7815H146.077C152.635 40.7815 158 46.3908 158 53.354V66.8936H3Z" fill="#FF563B" stroke="black" stroke-width="6" stroke-miterlimit="10"/>
<path fill-rule="evenodd" clip-rule="evenodd" d="M22.8718 63.7987V53.3538C22.8718 48.0347 27.4423 43.6827 33.0064 43.6827H144.984C151.144 43.1991 155.019 48.2281 155.119 53.3538V63.7987H22.8718Z" fill="#FF6E50"/>
</svg>
