<svg width="60" height="60" viewBox="0 0 60 60" fill="none" xmlns="http://www.w3.org/2000/svg">
<path d="M30.4464 28.3541C35.7073 28.3541 39.9884 24.073 39.9884 18.8108C39.9884 13.5506 35.708 9.27148 30.4464 9.27148C25.1862 9.27148 20.9071 13.5506 20.9071 18.8108C20.9071 24.073 25.1862 28.3541 30.4464 28.3541Z" fill="#F9EFE3"/>
<path d="M37.4038 26.7881C35.5273 28.4443 33.0666 29.4584 30.3726 29.4584C27.7036 29.4584 25.1934 28.4628 23.3222 26.8336C23.3064 26.8441 23.1468 26.8593 23.129 26.8672C20.046 28.3257 18.0521 30.845 18.0521 33.9624V51.121H42.3495V33.9604C42.3488 30.8549 40.5422 28.2459 37.4038 26.7881Z" fill="#B0E0D4"/>
<path d="M12.5294 32.8325V41.1817H2.58984V31.3714C2.58984 29.5635 3.67446 28.2283 5.4138 27.4035C6.5505 28.3464 8.10787 28.914 9.69622 28.914C11.1936 28.914 12.6204 28.4057 13.7261 27.5578L14.5233 28.1189C12.8169 29.8918 12.5294 32.7 12.5294 32.8325ZM9.7971 27.8097C6.78787 27.8097 4.33973 25.3602 4.33973 22.3496C4.33973 19.3391 6.78787 16.8896 9.7971 16.8896C12.809 16.8896 15.2597 19.3391 15.2597 22.3496C15.2597 25.3602 12.8096 27.8097 9.7971 27.8097Z" fill="#E0F1F8"/>
<path d="M45.9488 28.273L46.8217 27.7126C47.9288 28.5585 49.3325 29.0675 50.8292 29.0675C52.4176 29.0675 53.934 28.4998 55.0714 27.557C56.8114 28.3825 57.809 29.717 57.809 31.5249V41.1816H47.8707V32.9867C47.8707 32.8541 47.6565 30.0453 45.9488 28.273ZM45.3092 22.5025C45.3092 19.4919 47.76 17.0425 50.7718 17.0425C53.7811 17.0425 56.2292 19.4919 56.2292 22.5025C56.2292 25.513 53.7811 27.9631 50.7718 27.9631C47.76 27.9631 45.3092 25.513 45.3092 22.5025Z" fill="#E0F1F8"/>
<path d="M30.2334 30.6553C23.756 30.6553 18.4852 25.3839 18.4852 18.9039C18.4852 12.4259 23.756 7.15576 30.2334 7.15576C36.712 7.15576 41.9841 12.4259 41.9841 18.9039C41.9841 25.3839 36.712 30.6553 30.2334 30.6553ZM30.2334 10.4689C25.5817 10.4689 21.7984 14.2529 21.7984 18.9039C21.7984 23.5575 25.5817 27.3421 30.2334 27.3421C34.8857 27.3421 38.6709 23.5575 38.6709 18.9039C38.6703 14.2529 34.885 10.4689 30.2334 10.4689Z" fill="#454B53"/>
<path d="M42.7517 52.3746C41.8365 52.3746 41.0948 51.6329 41.0948 50.7177V34.0535C41.0948 31.3397 39.5499 29.1382 36.7451 27.8564C35.913 27.476 35.5477 26.4935 35.9275 25.6608C36.3086 24.8281 37.2897 24.4621 38.1231 24.8432C42.1181 26.6702 44.4079 30.027 44.4079 34.0542V50.7177C44.4086 51.6329 43.6668 52.3746 42.7517 52.3746Z" fill="#454B53"/>
<path d="M17.8793 52.3759C16.9642 52.3759 16.2224 51.6342 16.2224 50.719V34.0542C16.2224 30.0935 18.4253 26.7797 22.2666 24.9625C23.0947 24.5702 24.0811 24.9243 24.4727 25.7511C24.8644 26.5779 24.511 27.5656 23.6842 27.9572C20.9703 29.241 19.5363 31.3495 19.5363 34.0542V50.7183C19.5363 51.6342 18.7945 52.3759 17.8793 52.3759Z" fill="#454B53"/>
<path d="M9.79115 30.0646C5.56478 30.0646 2.125 26.6242 2.125 22.3958C2.125 18.1668 5.56478 14.7271 9.79115 14.7271C14.0215 14.7271 17.4632 18.1668 17.4632 22.3958C17.4626 26.6242 14.0215 30.0646 9.79115 30.0646ZM9.79115 18.0402C7.39115 18.0402 5.43819 19.9939 5.43819 22.3952C5.43819 24.7965 7.39115 26.7501 9.79115 26.7501C12.1951 26.7501 14.1494 24.7965 14.1494 22.3952C14.1494 19.9939 12.1945 18.0402 9.79115 18.0402Z" fill="#454B53"/>
<path d="M2.43427 42.7475C1.5191 42.7475 0.777344 42.0058 0.777344 41.0906V31.4174C0.777344 28.759 2.158 26.6405 4.66482 25.4524C5.49097 25.062 6.47932 25.4128 6.87097 26.2403C7.26328 27.0671 6.91119 28.0548 6.08372 28.4464C4.74262 29.082 4.09119 30.0539 4.09119 31.4174V41.0906C4.09119 42.0058 3.34943 42.7475 2.43427 42.7475Z" fill="#454B53"/>
<path d="M50.7389 30.0646C46.5105 30.0646 43.0701 26.6242 43.0701 22.3958C43.0701 18.1668 46.5105 14.7271 50.7389 14.7271C54.9672 14.7271 58.407 18.1668 58.407 22.3958C58.407 26.6242 54.9672 30.0646 50.7389 30.0646ZM50.7389 18.0402C48.3369 18.0402 46.3839 19.9939 46.3839 22.3952C46.3839 24.7965 48.3375 26.7501 50.7389 26.7501C53.1402 26.7501 55.0931 24.7965 55.0931 22.3952C55.0931 19.9939 53.1402 18.0402 50.7389 18.0402Z" fill="#454B53"/>
<path d="M58.1934 42.7477C57.2789 42.7477 56.5371 42.0059 56.5371 41.0907V31.4176C56.5371 30.027 55.86 29.0406 54.4648 28.4024C53.6327 28.022 53.2674 27.0382 53.6485 26.2068C54.0296 25.374 55.0134 25.0101 55.8441 25.3905C58.4274 26.5734 59.8503 28.7136 59.8503 31.4182V41.0914C59.8503 42.0059 59.1085 42.7477 58.1934 42.7477Z" fill="#454B53"/>
</svg>
