<svg width="31" height="19" viewBox="0 0 31 19" fill="none" xmlns="http://www.w3.org/2000/svg">
<path fill-rule="evenodd" clip-rule="evenodd" d="M15.9501 5.52804L23.9547 0.336841C24.6475 -0.11228 25.7708 -0.11228 26.4637 0.336841C27.1565 0.786192 27.1565 1.5146 26.4637 1.96393L17.6824 7.65878C17.2004 7.97155 16.51 8.06672 15.9012 7.94427C15.3209 8.03795 14.6814 7.9377 14.2278 7.64353L5.50532 1.98672C4.81705 1.54002 4.81705 0.81669 5.50532 0.370444C6.19344 -0.0760093 7.30922 -0.0760093 7.99738 0.370444L15.9501 5.52804ZM15.9322 15.5984L26.8474 8.4606C27.7921 7.84275 29.3239 7.84275 30.2686 8.4606C31.2134 9.07824 31.2134 10.08 30.2686 10.6978L18.2942 18.5284C17.6369 18.9582 16.6955 19.089 15.8653 18.9208C15.074 19.0495 14.202 18.9117 13.5833 18.5073L1.68905 10.7288C0.750621 10.1154 0.750621 9.12047 1.68905 8.5066C2.62745 7.89296 4.14896 7.89296 5.08736 8.5066L15.9322 15.5984Z" fill="white"/>
</svg>
