<svg width="60" height="60" viewBox="0 0 60 60" fill="none" xmlns="http://www.w3.org/2000/svg">
<g clip-path="url(#clip0_235903_120)">
<path d="M30 60C46.5685 60 60 46.5685 60 30C60 13.4315 46.5685 0 30 0C13.4315 0 0 13.4315 0 30C0 46.5685 13.4315 60 30 60Z" fill="#3DB9E3"/>
<path d="M55 11H7C5.89543 11 5 11.8954 5 13V46C5 47.1046 5.89543 48 7 48H55C56.1046 48 57 47.1046 57 46V13C57 11.8954 56.1046 11 55 11Z" fill="#343840"/>
<path d="M11 15L47 0L52 15H11Z" fill="#2CA651"/>
<path d="M52 14H7C5.89543 14 5 14.8954 5 16V49C5 50.1046 5.89543 51 7 51H52C53.1046 51 54 50.1046 54 49V16C54 14.8954 53.1046 14 52 14Z" fill="#464C59"/>
<path d="M7 17H9" stroke="#1E3064" stroke-width="1.75" stroke-miterlimit="10"/>
<path d="M7 17H9" stroke="#FFFB01" stroke-miterlimit="10"/>
<path d="M11 17H13" stroke="#1E3064" stroke-width="1.75" stroke-miterlimit="10"/>
<path d="M11 17H13" stroke="#FFFB01" stroke-miterlimit="10"/>
<path d="M15 17H17" stroke="#1E3064" stroke-width="1.75" stroke-miterlimit="10"/>
<path d="M15 17H17" stroke="#FFFB01" stroke-miterlimit="10"/>
<path d="M19 17H21" stroke="#1E3064" stroke-width="1.75" stroke-miterlimit="10"/>
<path d="M19 17H21" stroke="#FFFB01" stroke-miterlimit="10"/>
<path d="M23 17H25" stroke="#1E3064" stroke-width="1.75" stroke-miterlimit="10"/>
<path d="M23 17H25" stroke="#FFFB01" stroke-miterlimit="10"/>
<path d="M27 17H29" stroke="#1E3064" stroke-width="1.75" stroke-miterlimit="10"/>
<path d="M27 17H29" stroke="#FFFB01" stroke-miterlimit="10"/>
<path d="M31 17H33" stroke="#1E3064" stroke-width="1.75" stroke-miterlimit="10"/>
<path d="M31 17H33" stroke="#FFFB01" stroke-miterlimit="10"/>
<path d="M35 17H37" stroke="#1E3064" stroke-width="1.75" stroke-miterlimit="10"/>
<path d="M35 17H37" stroke="#FFFB01" stroke-miterlimit="10"/>
<path d="M39 17H41" stroke="#1E3064" stroke-width="1.75" stroke-miterlimit="10"/>
<path d="M39 17H41" stroke="#FFFB01" stroke-miterlimit="10"/>
<path d="M43 17H45" stroke="#1E3064" stroke-width="1.75" stroke-miterlimit="10"/>
<path d="M43 17H45" stroke="#FFFB01" stroke-miterlimit="10"/>
<path d="M47 17H49" stroke="#1E3064" stroke-width="1.75" stroke-miterlimit="10"/>
<path d="M47 17H49" stroke="#FFFB01" stroke-miterlimit="10"/>
<path d="M51 17H53" stroke="#1E3064" stroke-width="1.75" stroke-miterlimit="10"/>
<path d="M51 17H53" stroke="#FFFB01" stroke-miterlimit="10"/>
<path d="M7 48H9" stroke="#1E3064" stroke-width="1.75" stroke-miterlimit="10"/>
<path d="M7 48H9" stroke="#FFFB01" stroke-miterlimit="10"/>
<path d="M11 48H13" stroke="#1E3064" stroke-width="1.75" stroke-miterlimit="10"/>
<path d="M11 48H13" stroke="#FFFB01" stroke-miterlimit="10"/>
<path d="M15 48H17" stroke="#1E3064" stroke-width="1.75" stroke-miterlimit="10"/>
<path d="M15 48H17" stroke="#FFFB01" stroke-miterlimit="10"/>
<path d="M19 48H21" stroke="#1E3064" stroke-width="1.75" stroke-miterlimit="10"/>
<path d="M19 48H21" stroke="#FFFB01" stroke-miterlimit="10"/>
<path d="M23 48H25" stroke="#1E3064" stroke-width="1.75" stroke-miterlimit="10"/>
<path d="M23 48H25" stroke="#FFFB01" stroke-miterlimit="10"/>
<path d="M27 48H29" stroke="#1E3064" stroke-width="1.75" stroke-miterlimit="10"/>
<path d="M27 48H29" stroke="#FFFB01" stroke-miterlimit="10"/>
<path d="M31 48H33" stroke="#1E3064" stroke-width="1.75" stroke-miterlimit="10"/>
<path d="M31 48H33" stroke="#FFFB01" stroke-miterlimit="10"/>
<path d="M35 48H37" stroke="#1E3064" stroke-width="1.75" stroke-miterlimit="10"/>
<path d="M35 48H37" stroke="#FFFB01" stroke-miterlimit="10"/>
<path d="M39 48H41" stroke="#1E3064" stroke-width="1.75" stroke-miterlimit="10"/>
<path d="M39 48H41" stroke="#FFFB01" stroke-miterlimit="10"/>
<path d="M43 48H45" stroke="#1E3064" stroke-width="1.75" stroke-miterlimit="10"/>
<path d="M43 48H45" stroke="#FFFB01" stroke-miterlimit="10"/>
<path d="M47 48H49" stroke="#1E3064" stroke-width="1.75" stroke-miterlimit="10"/>
<path d="M47 48H49" stroke="#FFFB01" stroke-miterlimit="10"/>
<path d="M51 48H53" stroke="#1E3064" stroke-width="1.75" stroke-miterlimit="10"/>
<path d="M51 48H53" stroke="#FFFB01" stroke-miterlimit="10"/>
<path d="M43.5 10C44.8807 10 46 8.88071 46 7.5C46 6.11929 44.8807 5 43.5 5C42.1193 5 41 6.11929 41 7.5C41 8.88071 42.1193 10 43.5 10Z" fill="#4DB678"/>
<path d="M43 28H54V38H43C42.7348 38 42.4804 37.8946 42.2929 37.7071C42.1054 37.5196 42 37.2652 42 37V29C42 28.7348 42.1054 28.4804 42.2929 28.2929C42.4804 28.1054 42.7348 28 43 28Z" fill="#343840"/>
<path d="M45.5 34.5C46.3284 34.5 47 33.8284 47 33C47 32.1716 46.3284 31.5 45.5 31.5C44.6716 31.5 44 32.1716 44 33C44 33.8284 44.6716 34.5 45.5 34.5Z" fill="#8D8D93"/>
<path d="M50.5 35.5C51.8807 35.5 53 34.3807 53 33C53 31.6193 51.8807 30.5 50.5 30.5C49.1193 30.5 48 31.6193 48 33C48 34.3807 49.1193 35.5 50.5 35.5Z" fill="#8D8D93"/>
<path d="M50.5 34C51.0523 34 51.5 33.5523 51.5 33C51.5 32.4477 51.0523 32 50.5 32C49.9477 32 49.5 32.4477 49.5 33C49.5 33.5523 49.9477 34 50.5 34Z" fill="#DEDCE0"/>
</g>
<defs>
<clipPath id="clip0_235903_120">
<rect width="60" height="60" fill="white"/>
</clipPath>
</defs>
</svg>
